<mxfile host="app.diagrams.net" modified="2024-04-06T20:33:05.617Z" agent="Mozilla/5.0 (Windows NT 10.0; Win64; x64; rv:109.0) Gecko/20100101 Firefox/115.0" etag="a7efWEH1qXEI5zJKH8OJ" version="24.2.2" type="github">
  <diagram id="C5RBs43oDa-KdzZeNtuy" name="Page-1">
    <mxGraphModel dx="1445" dy="1008" grid="0" gridSize="10" guides="1" tooltips="1" connect="1" arrows="1" fold="1" page="0" pageScale="1" pageWidth="827" pageHeight="1169" math="0" shadow="0">
      <root>
        <mxCell id="WIyWlLk6GJQsqaUBKTNV-0" />
        <mxCell id="WIyWlLk6GJQsqaUBKTNV-1" parent="WIyWlLk6GJQsqaUBKTNV-0" />
        <mxCell id="WIyWlLk6GJQsqaUBKTNV-2" value="" style="rounded=0;html=1;jettySize=auto;orthogonalLoop=1;fontSize=11;endArrow=block;endFill=0;endSize=8;strokeWidth=1;shadow=0;labelBackgroundColor=none;edgeStyle=orthogonalEdgeStyle;" parent="WIyWlLk6GJQsqaUBKTNV-1" source="WIyWlLk6GJQsqaUBKTNV-3" target="WIyWlLk6GJQsqaUBKTNV-6" edge="1">
          <mxGeometry relative="1" as="geometry" />
        </mxCell>
        <mxCell id="eKrSvDzDUqx1KNHxV--T-25" value="1" style="edgeLabel;html=1;align=center;verticalAlign=middle;resizable=0;points=[];" vertex="1" connectable="0" parent="WIyWlLk6GJQsqaUBKTNV-2">
          <mxGeometry x="-0.16" relative="1" as="geometry">
            <mxPoint as="offset" />
          </mxGeometry>
        </mxCell>
        <mxCell id="WIyWlLk6GJQsqaUBKTNV-3" value="IDLE" style="rounded=1;whiteSpace=wrap;html=1;fontSize=12;glass=0;strokeWidth=1;shadow=0;" parent="WIyWlLk6GJQsqaUBKTNV-1" vertex="1">
          <mxGeometry x="160" y="80" width="120" height="40" as="geometry" />
        </mxCell>
        <mxCell id="eKrSvDzDUqx1KNHxV--T-7" style="edgeStyle=orthogonalEdgeStyle;rounded=0;orthogonalLoop=1;jettySize=auto;html=1;exitX=0;exitY=1;exitDx=0;exitDy=0;entryX=0.5;entryY=0;entryDx=0;entryDy=0;" edge="1" parent="WIyWlLk6GJQsqaUBKTNV-1" source="WIyWlLk6GJQsqaUBKTNV-6" target="eKrSvDzDUqx1KNHxV--T-6">
          <mxGeometry relative="1" as="geometry">
            <Array as="points">
              <mxPoint x="110" y="230" />
            </Array>
          </mxGeometry>
        </mxCell>
        <mxCell id="eKrSvDzDUqx1KNHxV--T-13" value="I2C_CMD_STOP" style="edgeLabel;html=1;align=center;verticalAlign=middle;resizable=0;points=[];" vertex="1" connectable="0" parent="eKrSvDzDUqx1KNHxV--T-7">
          <mxGeometry x="0.5611" relative="1" as="geometry">
            <mxPoint as="offset" />
          </mxGeometry>
        </mxCell>
        <mxCell id="eKrSvDzDUqx1KNHxV--T-8" style="edgeStyle=orthogonalEdgeStyle;rounded=0;orthogonalLoop=1;jettySize=auto;html=1;exitX=1;exitY=1;exitDx=0;exitDy=0;entryX=0.5;entryY=0;entryDx=0;entryDy=0;" edge="1" parent="WIyWlLk6GJQsqaUBKTNV-1" source="WIyWlLk6GJQsqaUBKTNV-6" target="WIyWlLk6GJQsqaUBKTNV-12">
          <mxGeometry relative="1" as="geometry">
            <Array as="points">
              <mxPoint x="330" y="230" />
            </Array>
          </mxGeometry>
        </mxCell>
        <mxCell id="eKrSvDzDUqx1KNHxV--T-14" value="I2C_CMD_READ" style="edgeLabel;html=1;align=center;verticalAlign=middle;resizable=0;points=[];" vertex="1" connectable="0" parent="eKrSvDzDUqx1KNHxV--T-8">
          <mxGeometry x="0.6019" relative="1" as="geometry">
            <mxPoint y="-3" as="offset" />
          </mxGeometry>
        </mxCell>
        <mxCell id="eKrSvDzDUqx1KNHxV--T-9" style="edgeStyle=orthogonalEdgeStyle;rounded=0;orthogonalLoop=1;jettySize=auto;html=1;exitX=1;exitY=0.5;exitDx=0;exitDy=0;entryX=0;entryY=0.5;entryDx=0;entryDy=0;" edge="1" parent="WIyWlLk6GJQsqaUBKTNV-1" source="WIyWlLk6GJQsqaUBKTNV-6" target="WIyWlLk6GJQsqaUBKTNV-7">
          <mxGeometry relative="1" as="geometry" />
        </mxCell>
        <mxCell id="eKrSvDzDUqx1KNHxV--T-16" value="I2C_CMD_WRITE" style="edgeLabel;html=1;align=center;verticalAlign=middle;resizable=0;points=[];" vertex="1" connectable="0" parent="eKrSvDzDUqx1KNHxV--T-9">
          <mxGeometry x="0.0126" relative="1" as="geometry">
            <mxPoint as="offset" />
          </mxGeometry>
        </mxCell>
        <mxCell id="eKrSvDzDUqx1KNHxV--T-11" style="edgeStyle=orthogonalEdgeStyle;rounded=0;orthogonalLoop=1;jettySize=auto;html=1;exitX=0;exitY=0.5;exitDx=0;exitDy=0;entryX=1;entryY=0.5;entryDx=0;entryDy=0;" edge="1" parent="WIyWlLk6GJQsqaUBKTNV-1" source="WIyWlLk6GJQsqaUBKTNV-6" target="eKrSvDzDUqx1KNHxV--T-10">
          <mxGeometry relative="1" as="geometry" />
        </mxCell>
        <mxCell id="eKrSvDzDUqx1KNHxV--T-12" value="I2C_CMD_START" style="edgeLabel;html=1;align=center;verticalAlign=middle;resizable=0;points=[];" vertex="1" connectable="0" parent="eKrSvDzDUqx1KNHxV--T-11">
          <mxGeometry x="-0.0701" y="-1" relative="1" as="geometry">
            <mxPoint as="offset" />
          </mxGeometry>
        </mxCell>
        <mxCell id="eKrSvDzDUqx1KNHxV--T-21" style="edgeStyle=orthogonalEdgeStyle;rounded=0;orthogonalLoop=1;jettySize=auto;html=1;exitX=1;exitY=0;exitDx=0;exitDy=0;entryX=0.656;entryY=-0.011;entryDx=0;entryDy=0;entryPerimeter=0;" edge="1" parent="WIyWlLk6GJQsqaUBKTNV-1" source="WIyWlLk6GJQsqaUBKTNV-6" target="WIyWlLk6GJQsqaUBKTNV-3">
          <mxGeometry relative="1" as="geometry">
            <Array as="points">
              <mxPoint x="339" y="190" />
              <mxPoint x="339" y="44" />
              <mxPoint x="238" y="44" />
              <mxPoint x="238" y="80" />
            </Array>
          </mxGeometry>
        </mxCell>
        <mxCell id="eKrSvDzDUqx1KNHxV--T-24" value="default" style="edgeLabel;html=1;align=center;verticalAlign=middle;resizable=0;points=[];" vertex="1" connectable="0" parent="eKrSvDzDUqx1KNHxV--T-21">
          <mxGeometry x="-0.7493" y="1" relative="1" as="geometry">
            <mxPoint as="offset" />
          </mxGeometry>
        </mxCell>
        <mxCell id="WIyWlLk6GJQsqaUBKTNV-6" value="CMD" style="rhombus;whiteSpace=wrap;html=1;shadow=0;fontFamily=Helvetica;fontSize=12;align=center;strokeWidth=1;spacing=6;spacingTop=-4;" parent="WIyWlLk6GJQsqaUBKTNV-1" vertex="1">
          <mxGeometry x="170" y="170" width="100" height="80" as="geometry" />
        </mxCell>
        <mxCell id="eKrSvDzDUqx1KNHxV--T-33" style="edgeStyle=orthogonalEdgeStyle;rounded=0;orthogonalLoop=1;jettySize=auto;html=1;entryX=0.5;entryY=0;entryDx=0;entryDy=0;" edge="1" parent="WIyWlLk6GJQsqaUBKTNV-1" source="WIyWlLk6GJQsqaUBKTNV-7" target="eKrSvDzDUqx1KNHxV--T-31">
          <mxGeometry relative="1" as="geometry" />
        </mxCell>
        <mxCell id="eKrSvDzDUqx1KNHxV--T-42" value="1" style="edgeLabel;html=1;align=center;verticalAlign=middle;resizable=0;points=[];" vertex="1" connectable="0" parent="eKrSvDzDUqx1KNHxV--T-33">
          <mxGeometry x="-0.06" relative="1" as="geometry">
            <mxPoint as="offset" />
          </mxGeometry>
        </mxCell>
        <mxCell id="WIyWlLk6GJQsqaUBKTNV-7" value="WR_B" style="rounded=1;whiteSpace=wrap;html=1;fontSize=12;glass=0;strokeWidth=1;shadow=0;" parent="WIyWlLk6GJQsqaUBKTNV-1" vertex="1">
          <mxGeometry x="397" y="190" width="120" height="40" as="geometry" />
        </mxCell>
        <mxCell id="eKrSvDzDUqx1KNHxV--T-48" style="edgeStyle=orthogonalEdgeStyle;rounded=0;orthogonalLoop=1;jettySize=auto;html=1;entryX=0.5;entryY=0;entryDx=0;entryDy=0;" edge="1" parent="WIyWlLk6GJQsqaUBKTNV-1" source="WIyWlLk6GJQsqaUBKTNV-12" target="eKrSvDzDUqx1KNHxV--T-47">
          <mxGeometry relative="1" as="geometry" />
        </mxCell>
        <mxCell id="eKrSvDzDUqx1KNHxV--T-49" value="1" style="edgeLabel;html=1;align=center;verticalAlign=middle;resizable=0;points=[];" vertex="1" connectable="0" parent="eKrSvDzDUqx1KNHxV--T-48">
          <mxGeometry x="-0.0976" relative="1" as="geometry">
            <mxPoint y="4" as="offset" />
          </mxGeometry>
        </mxCell>
        <mxCell id="WIyWlLk6GJQsqaUBKTNV-12" value="RD_B" style="rounded=1;whiteSpace=wrap;html=1;fontSize=12;glass=0;strokeWidth=1;shadow=0;" parent="WIyWlLk6GJQsqaUBKTNV-1" vertex="1">
          <mxGeometry x="270" y="280" width="120" height="40" as="geometry" />
        </mxCell>
        <mxCell id="eKrSvDzDUqx1KNHxV--T-45" style="edgeStyle=orthogonalEdgeStyle;rounded=0;orthogonalLoop=1;jettySize=auto;html=1;entryX=0.5;entryY=0;entryDx=0;entryDy=0;" edge="1" parent="WIyWlLk6GJQsqaUBKTNV-1" source="eKrSvDzDUqx1KNHxV--T-6" target="eKrSvDzDUqx1KNHxV--T-44">
          <mxGeometry relative="1" as="geometry" />
        </mxCell>
        <mxCell id="eKrSvDzDUqx1KNHxV--T-46" value="1" style="edgeLabel;html=1;align=center;verticalAlign=middle;resizable=0;points=[];" vertex="1" connectable="0" parent="eKrSvDzDUqx1KNHxV--T-45">
          <mxGeometry x="-0.2195" relative="1" as="geometry">
            <mxPoint y="5" as="offset" />
          </mxGeometry>
        </mxCell>
        <mxCell id="eKrSvDzDUqx1KNHxV--T-6" value="STOP_B" style="rounded=1;whiteSpace=wrap;html=1;fontSize=12;glass=0;strokeWidth=1;shadow=0;" vertex="1" parent="WIyWlLk6GJQsqaUBKTNV-1">
          <mxGeometry x="50" y="280" width="120" height="40" as="geometry" />
        </mxCell>
        <mxCell id="eKrSvDzDUqx1KNHxV--T-32" style="edgeStyle=orthogonalEdgeStyle;rounded=0;orthogonalLoop=1;jettySize=auto;html=1;entryX=0.5;entryY=0;entryDx=0;entryDy=0;" edge="1" parent="WIyWlLk6GJQsqaUBKTNV-1" source="eKrSvDzDUqx1KNHxV--T-10" target="eKrSvDzDUqx1KNHxV--T-30">
          <mxGeometry relative="1" as="geometry" />
        </mxCell>
        <mxCell id="eKrSvDzDUqx1KNHxV--T-43" value="1" style="edgeLabel;html=1;align=center;verticalAlign=middle;resizable=0;points=[];" vertex="1" connectable="0" parent="eKrSvDzDUqx1KNHxV--T-32">
          <mxGeometry x="-0.0933" relative="1" as="geometry">
            <mxPoint as="offset" />
          </mxGeometry>
        </mxCell>
        <mxCell id="eKrSvDzDUqx1KNHxV--T-10" value="START_B" style="rounded=1;whiteSpace=wrap;html=1;fontSize=12;glass=0;strokeWidth=1;shadow=0;" vertex="1" parent="WIyWlLk6GJQsqaUBKTNV-1">
          <mxGeometry x="-76" y="190" width="120" height="40" as="geometry" />
        </mxCell>
        <mxCell id="eKrSvDzDUqx1KNHxV--T-22" style="edgeStyle=orthogonalEdgeStyle;rounded=0;orthogonalLoop=1;jettySize=auto;html=1;exitX=0.75;exitY=1;exitDx=0;exitDy=0;entryX=0.75;entryY=0;entryDx=0;entryDy=0;" edge="1" parent="WIyWlLk6GJQsqaUBKTNV-1" source="WIyWlLk6GJQsqaUBKTNV-3" target="WIyWlLk6GJQsqaUBKTNV-3">
          <mxGeometry relative="1" as="geometry">
            <Array as="points">
              <mxPoint x="250" y="140" />
              <mxPoint x="309" y="140" />
              <mxPoint x="309" y="60" />
              <mxPoint x="250" y="60" />
            </Array>
          </mxGeometry>
        </mxCell>
        <mxCell id="eKrSvDzDUqx1KNHxV--T-23" value="0" style="edgeLabel;html=1;align=center;verticalAlign=middle;resizable=0;points=[];" vertex="1" connectable="0" parent="eKrSvDzDUqx1KNHxV--T-22">
          <mxGeometry x="-0.5908" y="-1" relative="1" as="geometry">
            <mxPoint as="offset" />
          </mxGeometry>
        </mxCell>
        <mxCell id="eKrSvDzDUqx1KNHxV--T-28" value="All states depend on &quot;clk_en&quot; (0 &amp;amp; 1 refer to it)" style="text;html=1;align=center;verticalAlign=middle;resizable=0;points=[];autosize=1;strokeColor=none;fillColor=none;" vertex="1" parent="WIyWlLk6GJQsqaUBKTNV-1">
          <mxGeometry x="-105" y="87" width="255" height="26" as="geometry" />
        </mxCell>
        <mxCell id="eKrSvDzDUqx1KNHxV--T-54" style="edgeStyle=orthogonalEdgeStyle;rounded=0;orthogonalLoop=1;jettySize=auto;html=1;entryX=0.5;entryY=0;entryDx=0;entryDy=0;" edge="1" parent="WIyWlLk6GJQsqaUBKTNV-1" source="eKrSvDzDUqx1KNHxV--T-30" target="eKrSvDzDUqx1KNHxV--T-51">
          <mxGeometry relative="1" as="geometry" />
        </mxCell>
        <mxCell id="eKrSvDzDUqx1KNHxV--T-30" value="START_C" style="rounded=1;whiteSpace=wrap;html=1;fontSize=12;glass=0;strokeWidth=1;shadow=0;" vertex="1" parent="WIyWlLk6GJQsqaUBKTNV-1">
          <mxGeometry x="-76" y="280" width="120" height="40" as="geometry" />
        </mxCell>
        <mxCell id="eKrSvDzDUqx1KNHxV--T-55" style="edgeStyle=orthogonalEdgeStyle;rounded=0;orthogonalLoop=1;jettySize=auto;html=1;entryX=0.5;entryY=0;entryDx=0;entryDy=0;" edge="1" parent="WIyWlLk6GJQsqaUBKTNV-1" source="eKrSvDzDUqx1KNHxV--T-31" target="eKrSvDzDUqx1KNHxV--T-53">
          <mxGeometry relative="1" as="geometry" />
        </mxCell>
        <mxCell id="eKrSvDzDUqx1KNHxV--T-31" value="WR_C" style="rounded=1;whiteSpace=wrap;html=1;fontSize=12;glass=0;strokeWidth=1;shadow=0;" vertex="1" parent="WIyWlLk6GJQsqaUBKTNV-1">
          <mxGeometry x="397" y="280" width="120" height="40" as="geometry" />
        </mxCell>
        <mxCell id="eKrSvDzDUqx1KNHxV--T-34" style="edgeStyle=orthogonalEdgeStyle;rounded=0;orthogonalLoop=1;jettySize=auto;html=1;exitX=0.75;exitY=1;exitDx=0;exitDy=0;entryX=0.75;entryY=0;entryDx=0;entryDy=0;" edge="1" parent="WIyWlLk6GJQsqaUBKTNV-1" source="WIyWlLk6GJQsqaUBKTNV-7" target="WIyWlLk6GJQsqaUBKTNV-7">
          <mxGeometry relative="1" as="geometry">
            <Array as="points">
              <mxPoint x="487" y="250" />
              <mxPoint x="538" y="250" />
              <mxPoint x="538" y="170" />
              <mxPoint x="487" y="170" />
            </Array>
          </mxGeometry>
        </mxCell>
        <mxCell id="eKrSvDzDUqx1KNHxV--T-79" value="0" style="edgeLabel;html=1;align=center;verticalAlign=middle;resizable=0;points=[];" vertex="1" connectable="0" parent="eKrSvDzDUqx1KNHxV--T-34">
          <mxGeometry x="0.006" relative="1" as="geometry">
            <mxPoint as="offset" />
          </mxGeometry>
        </mxCell>
        <mxCell id="eKrSvDzDUqx1KNHxV--T-35" style="edgeStyle=orthogonalEdgeStyle;rounded=0;orthogonalLoop=1;jettySize=auto;html=1;exitX=0.25;exitY=1;exitDx=0;exitDy=0;entryX=0.25;entryY=0;entryDx=0;entryDy=0;" edge="1" parent="WIyWlLk6GJQsqaUBKTNV-1" source="eKrSvDzDUqx1KNHxV--T-10" target="eKrSvDzDUqx1KNHxV--T-10">
          <mxGeometry relative="1" as="geometry">
            <Array as="points">
              <mxPoint x="-46" y="250" />
              <mxPoint x="-98" y="250" />
              <mxPoint x="-98" y="170" />
              <mxPoint x="-46" y="170" />
            </Array>
          </mxGeometry>
        </mxCell>
        <mxCell id="eKrSvDzDUqx1KNHxV--T-81" value="0" style="edgeLabel;html=1;align=center;verticalAlign=middle;resizable=0;points=[];" vertex="1" connectable="0" parent="eKrSvDzDUqx1KNHxV--T-35">
          <mxGeometry x="-0.0238" y="-1" relative="1" as="geometry">
            <mxPoint as="offset" />
          </mxGeometry>
        </mxCell>
        <mxCell id="eKrSvDzDUqx1KNHxV--T-36" style="edgeStyle=orthogonalEdgeStyle;rounded=0;orthogonalLoop=1;jettySize=auto;html=1;exitX=0.75;exitY=1;exitDx=0;exitDy=0;entryX=0.75;entryY=0;entryDx=0;entryDy=0;" edge="1" parent="WIyWlLk6GJQsqaUBKTNV-1" source="eKrSvDzDUqx1KNHxV--T-6" target="eKrSvDzDUqx1KNHxV--T-6">
          <mxGeometry relative="1" as="geometry">
            <Array as="points">
              <mxPoint x="140" y="334" />
              <mxPoint x="194" y="334" />
              <mxPoint x="194" y="260" />
              <mxPoint x="140" y="260" />
            </Array>
          </mxGeometry>
        </mxCell>
        <mxCell id="eKrSvDzDUqx1KNHxV--T-68" value="0" style="edgeLabel;html=1;align=center;verticalAlign=middle;resizable=0;points=[];" vertex="1" connectable="0" parent="eKrSvDzDUqx1KNHxV--T-36">
          <mxGeometry x="-0.0494" y="-1" relative="1" as="geometry">
            <mxPoint y="1" as="offset" />
          </mxGeometry>
        </mxCell>
        <mxCell id="eKrSvDzDUqx1KNHxV--T-37" style="edgeStyle=orthogonalEdgeStyle;rounded=0;orthogonalLoop=1;jettySize=auto;html=1;exitX=0.25;exitY=1;exitDx=0;exitDy=0;entryX=0.25;entryY=0;entryDx=0;entryDy=0;" edge="1" parent="WIyWlLk6GJQsqaUBKTNV-1" source="WIyWlLk6GJQsqaUBKTNV-12" target="WIyWlLk6GJQsqaUBKTNV-12">
          <mxGeometry relative="1" as="geometry">
            <Array as="points">
              <mxPoint x="300" y="334" />
              <mxPoint x="250" y="334" />
              <mxPoint x="250" y="260" />
              <mxPoint x="300" y="260" />
            </Array>
          </mxGeometry>
        </mxCell>
        <mxCell id="eKrSvDzDUqx1KNHxV--T-67" value="0" style="edgeLabel;html=1;align=center;verticalAlign=middle;resizable=0;points=[];" vertex="1" connectable="0" parent="eKrSvDzDUqx1KNHxV--T-37">
          <mxGeometry x="-0.0433" relative="1" as="geometry">
            <mxPoint x="1" y="1" as="offset" />
          </mxGeometry>
        </mxCell>
        <mxCell id="eKrSvDzDUqx1KNHxV--T-61" style="edgeStyle=orthogonalEdgeStyle;rounded=0;orthogonalLoop=1;jettySize=auto;html=1;entryX=0.5;entryY=0;entryDx=0;entryDy=0;" edge="1" parent="WIyWlLk6GJQsqaUBKTNV-1" source="eKrSvDzDUqx1KNHxV--T-44" target="eKrSvDzDUqx1KNHxV--T-57">
          <mxGeometry relative="1" as="geometry" />
        </mxCell>
        <mxCell id="eKrSvDzDUqx1KNHxV--T-44" value="STOP_C" style="rounded=1;whiteSpace=wrap;html=1;fontSize=12;glass=0;strokeWidth=1;shadow=0;" vertex="1" parent="WIyWlLk6GJQsqaUBKTNV-1">
          <mxGeometry x="50" y="361" width="120" height="40" as="geometry" />
        </mxCell>
        <mxCell id="eKrSvDzDUqx1KNHxV--T-60" style="edgeStyle=orthogonalEdgeStyle;rounded=0;orthogonalLoop=1;jettySize=auto;html=1;entryX=0.5;entryY=0;entryDx=0;entryDy=0;" edge="1" parent="WIyWlLk6GJQsqaUBKTNV-1" source="eKrSvDzDUqx1KNHxV--T-47" target="eKrSvDzDUqx1KNHxV--T-58">
          <mxGeometry relative="1" as="geometry" />
        </mxCell>
        <mxCell id="eKrSvDzDUqx1KNHxV--T-63" style="edgeStyle=orthogonalEdgeStyle;rounded=0;orthogonalLoop=1;jettySize=auto;html=1;exitX=0.25;exitY=1;exitDx=0;exitDy=0;" edge="1" parent="WIyWlLk6GJQsqaUBKTNV-1" source="eKrSvDzDUqx1KNHxV--T-47">
          <mxGeometry relative="1" as="geometry">
            <mxPoint x="300" y="360.16666666666674" as="targetPoint" />
            <Array as="points">
              <mxPoint x="300" y="417" />
              <mxPoint x="250" y="417" />
              <mxPoint x="250" y="341" />
              <mxPoint x="301" y="341" />
              <mxPoint x="301" y="360" />
            </Array>
          </mxGeometry>
        </mxCell>
        <mxCell id="eKrSvDzDUqx1KNHxV--T-72" value="0" style="edgeLabel;html=1;align=center;verticalAlign=middle;resizable=0;points=[];" vertex="1" connectable="0" parent="eKrSvDzDUqx1KNHxV--T-63">
          <mxGeometry x="-0.055" relative="1" as="geometry">
            <mxPoint x="-1" y="1" as="offset" />
          </mxGeometry>
        </mxCell>
        <mxCell id="eKrSvDzDUqx1KNHxV--T-47" value="RD_C" style="rounded=1;whiteSpace=wrap;html=1;fontSize=12;glass=0;strokeWidth=1;shadow=0;" vertex="1" parent="WIyWlLk6GJQsqaUBKTNV-1">
          <mxGeometry x="270" y="361" width="120" height="40" as="geometry" />
        </mxCell>
        <mxCell id="eKrSvDzDUqx1KNHxV--T-62" style="edgeStyle=orthogonalEdgeStyle;rounded=0;orthogonalLoop=1;jettySize=auto;html=1;entryX=0.5;entryY=0;entryDx=0;entryDy=0;" edge="1" parent="WIyWlLk6GJQsqaUBKTNV-1" source="eKrSvDzDUqx1KNHxV--T-51" target="eKrSvDzDUqx1KNHxV--T-56">
          <mxGeometry relative="1" as="geometry" />
        </mxCell>
        <mxCell id="eKrSvDzDUqx1KNHxV--T-51" value="START_D" style="rounded=1;whiteSpace=wrap;html=1;fontSize=12;glass=0;strokeWidth=1;shadow=0;" vertex="1" parent="WIyWlLk6GJQsqaUBKTNV-1">
          <mxGeometry x="-76" y="361" width="120" height="40" as="geometry" />
        </mxCell>
        <mxCell id="eKrSvDzDUqx1KNHxV--T-92" style="edgeStyle=orthogonalEdgeStyle;rounded=0;orthogonalLoop=1;jettySize=auto;html=1;entryX=0.5;entryY=0;entryDx=0;entryDy=0;" edge="1" parent="WIyWlLk6GJQsqaUBKTNV-1" source="eKrSvDzDUqx1KNHxV--T-53" target="WIyWlLk6GJQsqaUBKTNV-3">
          <mxGeometry relative="1" as="geometry">
            <Array as="points">
              <mxPoint x="457" y="445" />
              <mxPoint x="582" y="445" />
              <mxPoint x="582" y="30" />
              <mxPoint x="220" y="30" />
            </Array>
          </mxGeometry>
        </mxCell>
        <mxCell id="eKrSvDzDUqx1KNHxV--T-101" value="1" style="edgeLabel;html=1;align=center;verticalAlign=middle;resizable=0;points=[];" vertex="1" connectable="0" parent="eKrSvDzDUqx1KNHxV--T-92">
          <mxGeometry x="-0.9519" y="-1" relative="1" as="geometry">
            <mxPoint as="offset" />
          </mxGeometry>
        </mxCell>
        <mxCell id="eKrSvDzDUqx1KNHxV--T-53" value="WR_D" style="rounded=1;whiteSpace=wrap;html=1;fontSize=12;glass=0;strokeWidth=1;shadow=0;" vertex="1" parent="WIyWlLk6GJQsqaUBKTNV-1">
          <mxGeometry x="397" y="361" width="120" height="40" as="geometry" />
        </mxCell>
        <mxCell id="eKrSvDzDUqx1KNHxV--T-86" style="edgeStyle=orthogonalEdgeStyle;rounded=0;orthogonalLoop=1;jettySize=auto;html=1;entryX=0.5;entryY=0;entryDx=0;entryDy=0;" edge="1" parent="WIyWlLk6GJQsqaUBKTNV-1" source="eKrSvDzDUqx1KNHxV--T-56" target="eKrSvDzDUqx1KNHxV--T-85">
          <mxGeometry relative="1" as="geometry" />
        </mxCell>
        <mxCell id="eKrSvDzDUqx1KNHxV--T-56" value="START_E" style="rounded=1;whiteSpace=wrap;html=1;fontSize=12;glass=0;strokeWidth=1;shadow=0;" vertex="1" parent="WIyWlLk6GJQsqaUBKTNV-1">
          <mxGeometry x="-76" y="442" width="120" height="40" as="geometry" />
        </mxCell>
        <mxCell id="eKrSvDzDUqx1KNHxV--T-97" style="edgeStyle=orthogonalEdgeStyle;rounded=0;orthogonalLoop=1;jettySize=auto;html=1;entryX=0.25;entryY=0;entryDx=0;entryDy=0;" edge="1" parent="WIyWlLk6GJQsqaUBKTNV-1" source="eKrSvDzDUqx1KNHxV--T-57" target="WIyWlLk6GJQsqaUBKTNV-3">
          <mxGeometry relative="1" as="geometry">
            <Array as="points">
              <mxPoint x="110" y="629" />
              <mxPoint x="-159" y="629" />
              <mxPoint x="-159" y="30" />
              <mxPoint x="190" y="30" />
            </Array>
          </mxGeometry>
        </mxCell>
        <mxCell id="eKrSvDzDUqx1KNHxV--T-98" value="1" style="edgeLabel;html=1;align=center;verticalAlign=middle;resizable=0;points=[];" vertex="1" connectable="0" parent="eKrSvDzDUqx1KNHxV--T-97">
          <mxGeometry x="-0.9193" relative="1" as="geometry">
            <mxPoint y="-1" as="offset" />
          </mxGeometry>
        </mxCell>
        <mxCell id="eKrSvDzDUqx1KNHxV--T-57" value="STOP_D" style="rounded=1;whiteSpace=wrap;html=1;fontSize=12;glass=0;strokeWidth=1;shadow=0;" vertex="1" parent="WIyWlLk6GJQsqaUBKTNV-1">
          <mxGeometry x="50" y="442" width="120" height="40" as="geometry" />
        </mxCell>
        <mxCell id="eKrSvDzDUqx1KNHxV--T-58" value="RD_D" style="rounded=1;whiteSpace=wrap;html=1;fontSize=12;glass=0;strokeWidth=1;shadow=0;" vertex="1" parent="WIyWlLk6GJQsqaUBKTNV-1">
          <mxGeometry x="270" y="442" width="120" height="40" as="geometry" />
        </mxCell>
        <mxCell id="eKrSvDzDUqx1KNHxV--T-64" style="edgeStyle=orthogonalEdgeStyle;rounded=0;orthogonalLoop=1;jettySize=auto;html=1;exitX=0.25;exitY=1;exitDx=0;exitDy=0;entryX=0.25;entryY=0;entryDx=0;entryDy=0;" edge="1" parent="WIyWlLk6GJQsqaUBKTNV-1" source="eKrSvDzDUqx1KNHxV--T-58" target="eKrSvDzDUqx1KNHxV--T-58">
          <mxGeometry relative="1" as="geometry">
            <Array as="points">
              <mxPoint x="300" y="502" />
              <mxPoint x="250" y="502" />
              <mxPoint x="250" y="424" />
              <mxPoint x="300" y="424" />
            </Array>
          </mxGeometry>
        </mxCell>
        <mxCell id="eKrSvDzDUqx1KNHxV--T-73" value="0" style="edgeLabel;html=1;align=center;verticalAlign=middle;resizable=0;points=[];" vertex="1" connectable="0" parent="eKrSvDzDUqx1KNHxV--T-64">
          <mxGeometry x="0.0333" relative="1" as="geometry">
            <mxPoint y="-2" as="offset" />
          </mxGeometry>
        </mxCell>
        <mxCell id="eKrSvDzDUqx1KNHxV--T-66" style="edgeStyle=orthogonalEdgeStyle;rounded=0;orthogonalLoop=1;jettySize=auto;html=1;exitX=0.75;exitY=1;exitDx=0;exitDy=0;entryX=0.75;entryY=0;entryDx=0;entryDy=0;" edge="1" parent="WIyWlLk6GJQsqaUBKTNV-1" source="eKrSvDzDUqx1KNHxV--T-53" target="eKrSvDzDUqx1KNHxV--T-53">
          <mxGeometry relative="1" as="geometry">
            <Array as="points">
              <mxPoint x="487" y="421" />
              <mxPoint x="536" y="421" />
              <mxPoint x="536" y="341" />
              <mxPoint x="487" y="341" />
            </Array>
          </mxGeometry>
        </mxCell>
        <mxCell id="eKrSvDzDUqx1KNHxV--T-80" value="0" style="edgeLabel;html=1;align=center;verticalAlign=middle;resizable=0;points=[];" vertex="1" connectable="0" parent="eKrSvDzDUqx1KNHxV--T-66">
          <mxGeometry x="-0.0076" y="-1" relative="1" as="geometry">
            <mxPoint as="offset" />
          </mxGeometry>
        </mxCell>
        <mxCell id="eKrSvDzDUqx1KNHxV--T-69" style="edgeStyle=orthogonalEdgeStyle;rounded=0;orthogonalLoop=1;jettySize=auto;html=1;exitX=0.75;exitY=1;exitDx=0;exitDy=0;entryX=0.75;entryY=0;entryDx=0;entryDy=0;" edge="1" parent="WIyWlLk6GJQsqaUBKTNV-1" source="eKrSvDzDUqx1KNHxV--T-44" target="eKrSvDzDUqx1KNHxV--T-44">
          <mxGeometry relative="1" as="geometry">
            <Array as="points">
              <mxPoint x="140" y="417" />
              <mxPoint x="194" y="417" />
              <mxPoint x="194" y="341" />
              <mxPoint x="140" y="341" />
            </Array>
          </mxGeometry>
        </mxCell>
        <mxCell id="eKrSvDzDUqx1KNHxV--T-71" value="0" style="edgeLabel;html=1;align=center;verticalAlign=middle;resizable=0;points=[];" vertex="1" connectable="0" parent="eKrSvDzDUqx1KNHxV--T-69">
          <mxGeometry x="0.0146" relative="1" as="geometry">
            <mxPoint y="8" as="offset" />
          </mxGeometry>
        </mxCell>
        <mxCell id="eKrSvDzDUqx1KNHxV--T-74" style="edgeStyle=orthogonalEdgeStyle;rounded=0;orthogonalLoop=1;jettySize=auto;html=1;exitX=0.75;exitY=1;exitDx=0;exitDy=0;entryX=0.75;entryY=0;entryDx=0;entryDy=0;" edge="1" parent="WIyWlLk6GJQsqaUBKTNV-1" source="eKrSvDzDUqx1KNHxV--T-57" target="eKrSvDzDUqx1KNHxV--T-57">
          <mxGeometry relative="1" as="geometry">
            <Array as="points">
              <mxPoint x="140" y="502" />
              <mxPoint x="195" y="502" />
              <mxPoint x="195" y="424" />
              <mxPoint x="140" y="424" />
            </Array>
          </mxGeometry>
        </mxCell>
        <mxCell id="eKrSvDzDUqx1KNHxV--T-76" value="0" style="edgeLabel;html=1;align=center;verticalAlign=middle;resizable=0;points=[];" vertex="1" connectable="0" parent="eKrSvDzDUqx1KNHxV--T-74">
          <mxGeometry x="0.0566" relative="1" as="geometry">
            <mxPoint as="offset" />
          </mxGeometry>
        </mxCell>
        <mxCell id="eKrSvDzDUqx1KNHxV--T-77" style="edgeStyle=orthogonalEdgeStyle;rounded=0;orthogonalLoop=1;jettySize=auto;html=1;exitX=0.75;exitY=1;exitDx=0;exitDy=0;entryX=0.75;entryY=0;entryDx=0;entryDy=0;" edge="1" parent="WIyWlLk6GJQsqaUBKTNV-1" source="eKrSvDzDUqx1KNHxV--T-31" target="eKrSvDzDUqx1KNHxV--T-31">
          <mxGeometry relative="1" as="geometry">
            <Array as="points">
              <mxPoint x="487" y="334" />
              <mxPoint x="538" y="334" />
              <mxPoint x="538" y="260" />
              <mxPoint x="487" y="260" />
            </Array>
          </mxGeometry>
        </mxCell>
        <mxCell id="eKrSvDzDUqx1KNHxV--T-78" value="0" style="edgeLabel;html=1;align=center;verticalAlign=middle;resizable=0;points=[];" vertex="1" connectable="0" parent="eKrSvDzDUqx1KNHxV--T-77">
          <mxGeometry x="-0.0429" relative="1" as="geometry">
            <mxPoint as="offset" />
          </mxGeometry>
        </mxCell>
        <mxCell id="eKrSvDzDUqx1KNHxV--T-82" style="edgeStyle=orthogonalEdgeStyle;rounded=0;orthogonalLoop=1;jettySize=auto;html=1;exitX=0.25;exitY=1;exitDx=0;exitDy=0;entryX=0.25;entryY=0;entryDx=0;entryDy=0;" edge="1" parent="WIyWlLk6GJQsqaUBKTNV-1" source="eKrSvDzDUqx1KNHxV--T-30" target="eKrSvDzDUqx1KNHxV--T-30">
          <mxGeometry relative="1" as="geometry">
            <Array as="points">
              <mxPoint x="-46" y="337" />
              <mxPoint x="-98" y="337" />
              <mxPoint x="-98" y="260" />
              <mxPoint x="-46" y="260" />
            </Array>
          </mxGeometry>
        </mxCell>
        <mxCell id="eKrSvDzDUqx1KNHxV--T-88" value="0" style="edgeLabel;html=1;align=center;verticalAlign=middle;resizable=0;points=[];" vertex="1" connectable="0" parent="eKrSvDzDUqx1KNHxV--T-82">
          <mxGeometry x="-0.0092" relative="1" as="geometry">
            <mxPoint as="offset" />
          </mxGeometry>
        </mxCell>
        <mxCell id="eKrSvDzDUqx1KNHxV--T-83" style="edgeStyle=orthogonalEdgeStyle;rounded=0;orthogonalLoop=1;jettySize=auto;html=1;exitX=0.25;exitY=1;exitDx=0;exitDy=0;entryX=0.25;entryY=0;entryDx=0;entryDy=0;" edge="1" parent="WIyWlLk6GJQsqaUBKTNV-1" source="eKrSvDzDUqx1KNHxV--T-51" target="eKrSvDzDUqx1KNHxV--T-51">
          <mxGeometry relative="1" as="geometry">
            <Array as="points">
              <mxPoint x="-46" y="419" />
              <mxPoint x="-97" y="419" />
              <mxPoint x="-97" y="345" />
              <mxPoint x="-46" y="345" />
            </Array>
          </mxGeometry>
        </mxCell>
        <mxCell id="eKrSvDzDUqx1KNHxV--T-89" value="0" style="edgeLabel;html=1;align=center;verticalAlign=middle;resizable=0;points=[];" vertex="1" connectable="0" parent="eKrSvDzDUqx1KNHxV--T-83">
          <mxGeometry x="0.019" y="-1" relative="1" as="geometry">
            <mxPoint as="offset" />
          </mxGeometry>
        </mxCell>
        <mxCell id="eKrSvDzDUqx1KNHxV--T-84" style="edgeStyle=orthogonalEdgeStyle;rounded=0;orthogonalLoop=1;jettySize=auto;html=1;exitX=0.25;exitY=1;exitDx=0;exitDy=0;entryX=0.25;entryY=0;entryDx=0;entryDy=0;" edge="1" parent="WIyWlLk6GJQsqaUBKTNV-1" source="eKrSvDzDUqx1KNHxV--T-56" target="eKrSvDzDUqx1KNHxV--T-56">
          <mxGeometry relative="1" as="geometry">
            <Array as="points">
              <mxPoint x="-46" y="498" />
              <mxPoint x="-97" y="498" />
              <mxPoint x="-97" y="426" />
              <mxPoint x="-46" y="426" />
            </Array>
          </mxGeometry>
        </mxCell>
        <mxCell id="eKrSvDzDUqx1KNHxV--T-90" value="0" style="edgeLabel;html=1;align=center;verticalAlign=middle;resizable=0;points=[];" vertex="1" connectable="0" parent="eKrSvDzDUqx1KNHxV--T-84">
          <mxGeometry y="-1" relative="1" as="geometry">
            <mxPoint as="offset" />
          </mxGeometry>
        </mxCell>
        <mxCell id="eKrSvDzDUqx1KNHxV--T-85" value="START_F" style="rounded=1;whiteSpace=wrap;html=1;fontSize=12;glass=0;strokeWidth=1;shadow=0;" vertex="1" parent="WIyWlLk6GJQsqaUBKTNV-1">
          <mxGeometry x="-76" y="523" width="120" height="40" as="geometry" />
        </mxCell>
        <mxCell id="eKrSvDzDUqx1KNHxV--T-87" style="edgeStyle=orthogonalEdgeStyle;rounded=0;orthogonalLoop=1;jettySize=auto;html=1;exitX=0.25;exitY=1;exitDx=0;exitDy=0;entryX=0.25;entryY=0;entryDx=0;entryDy=0;" edge="1" parent="WIyWlLk6GJQsqaUBKTNV-1" source="eKrSvDzDUqx1KNHxV--T-85" target="eKrSvDzDUqx1KNHxV--T-85">
          <mxGeometry relative="1" as="geometry">
            <Array as="points">
              <mxPoint x="-46" y="583" />
              <mxPoint x="-97" y="583" />
              <mxPoint x="-97" y="507" />
              <mxPoint x="-46" y="507" />
            </Array>
          </mxGeometry>
        </mxCell>
        <mxCell id="eKrSvDzDUqx1KNHxV--T-91" value="0" style="edgeLabel;html=1;align=center;verticalAlign=middle;resizable=0;points=[];" vertex="1" connectable="0" parent="eKrSvDzDUqx1KNHxV--T-87">
          <mxGeometry x="0.028" y="1" relative="1" as="geometry">
            <mxPoint as="offset" />
          </mxGeometry>
        </mxCell>
        <mxCell id="eKrSvDzDUqx1KNHxV--T-93" style="edgeStyle=orthogonalEdgeStyle;rounded=0;orthogonalLoop=1;jettySize=auto;html=1;entryX=0.383;entryY=0;entryDx=0;entryDy=0;entryPerimeter=0;" edge="1" parent="WIyWlLk6GJQsqaUBKTNV-1" source="eKrSvDzDUqx1KNHxV--T-58" target="WIyWlLk6GJQsqaUBKTNV-3">
          <mxGeometry relative="1" as="geometry">
            <Array as="points">
              <mxPoint x="330" y="502" />
              <mxPoint x="611" y="502" />
              <mxPoint x="611" y="14" />
              <mxPoint x="206" y="14" />
            </Array>
          </mxGeometry>
        </mxCell>
        <mxCell id="eKrSvDzDUqx1KNHxV--T-100" value="1" style="edgeLabel;html=1;align=center;verticalAlign=middle;resizable=0;points=[];" vertex="1" connectable="0" parent="eKrSvDzDUqx1KNHxV--T-93">
          <mxGeometry x="-0.7587" y="-2" relative="1" as="geometry">
            <mxPoint as="offset" />
          </mxGeometry>
        </mxCell>
        <mxCell id="eKrSvDzDUqx1KNHxV--T-96" style="edgeStyle=orthogonalEdgeStyle;rounded=0;orthogonalLoop=1;jettySize=auto;html=1;entryX=0.117;entryY=0.05;entryDx=0;entryDy=0;entryPerimeter=0;" edge="1" parent="WIyWlLk6GJQsqaUBKTNV-1" source="eKrSvDzDUqx1KNHxV--T-85" target="WIyWlLk6GJQsqaUBKTNV-3">
          <mxGeometry relative="1" as="geometry">
            <Array as="points">
              <mxPoint x="-16" y="606" />
              <mxPoint x="-127" y="606" />
              <mxPoint x="-127" y="42" />
              <mxPoint x="174" y="42" />
            </Array>
          </mxGeometry>
        </mxCell>
        <mxCell id="eKrSvDzDUqx1KNHxV--T-99" value="1" style="edgeLabel;html=1;align=center;verticalAlign=middle;resizable=0;points=[];" vertex="1" connectable="0" parent="eKrSvDzDUqx1KNHxV--T-96">
          <mxGeometry x="-0.9563" y="-1" relative="1" as="geometry">
            <mxPoint as="offset" />
          </mxGeometry>
        </mxCell>
      </root>
    </mxGraphModel>
  </diagram>
</mxfile>
